<svg xmlns="http://www.w3.org/2000/svg" width="360" height="760" viewBox="0 0 360 760" role="img" aria-label="摩旅工具我的页预览">
  <rect width="360" height="760" rx="34" fill="#eef3f1"/>
  <rect x="28" y="24" width="304" height="712" rx="34" fill="#ffffff" stroke="#d8e0dc" stroke-width="2"/>
  <rect x="46" y="50" width="268" height="652" rx="24" fill="#fbfdfc"/>
  <text x="62" y="82" font-family="Arial,'Microsoft YaHei',sans-serif" font-size="11" font-weight="700" fill="#334155">9:41</text>
  <text x="62" y="124" font-family="Arial,'Microsoft YaHei',sans-serif" font-size="22" font-weight="900" fill="#0f172a">我的</text>

  <rect x="62" y="150" width="236" height="142" rx="22" fill="#16a34a"/>
  <circle cx="104" cy="204" r="28" fill="#dcfce7"/>
  <circle cx="104" cy="196" r="10" fill="#16a34a"/>
  <path d="M85 226c7-15 31-15 38 0" fill="#16a34a"/>
  <text x="148" y="198" font-family="Arial,'Microsoft YaHei',sans-serif" font-size="18" font-weight="900" fill="#ffffff">微信用户</text>
  <text x="148" y="224" font-family="Arial,'Microsoft YaHei',sans-serif" font-size="12" fill="#dcfce7">已登录，同步你的摩旅档案</text>
  <rect x="82" y="254" width="196" height="18" rx="9" fill="#ffffff" opacity=".24"/>

  <g font-family="Arial,'Microsoft YaHei',sans-serif" text-anchor="middle">
    <rect x="62" y="316" width="70" height="74" rx="16" fill="#ffffff" stroke="#d8e0dc"/>
    <text x="97" y="348" font-size="22" font-weight="900" fill="#0f172a">2</text>
    <text x="97" y="372" font-size="11" fill="#64748b">车辆</text>
    <rect x="145" y="316" width="70" height="74" rx="16" fill="#ffffff" stroke="#d8e0dc"/>
    <text x="180" y="348" font-size="22" font-weight="900" fill="#0f172a">8</text>
    <text x="180" y="372" font-size="11" fill="#64748b">装备</text>
    <rect x="228" y="316" width="70" height="74" rx="16" fill="#ffffff" stroke="#d8e0dc"/>
    <text x="263" y="348" font-size="22" font-weight="900" fill="#0f172a">3</text>
    <text x="263" y="372" font-size="11" fill="#64748b">模板</text>
  </g>

  <text x="62" y="430" font-family="Arial,'Microsoft YaHei',sans-serif" font-size="16" font-weight="900" fill="#0f172a">个人管理</text>
  <rect x="62" y="450" width="236" height="52" rx="14" fill="#ffffff" stroke="#d8e0dc"/>
  <circle cx="88" cy="476" r="12" fill="#dcfce7"/>
  <path d="M82 476h12M88 470v12" stroke="#16a34a" stroke-width="2.2" stroke-linecap="round"/>
  <text x="112" y="481" font-family="Arial,'Microsoft YaHei',sans-serif" font-size="14" font-weight="800" fill="#334155">我的车辆</text>
  <text x="276" y="481" font-family="Arial,'Microsoft YaHei',sans-serif" font-size="18" fill="#94a3b8">›</text>

  <rect x="62" y="516" width="236" height="52" rx="14" fill="#ffffff" stroke="#d8e0dc"/>
  <circle cx="88" cy="542" r="12" fill="#fef3c7"/>
  <path d="M82 542h12" stroke="#b45309" stroke-width="2.2" stroke-linecap="round"/>
  <text x="112" y="547" font-family="Arial,'Microsoft YaHei',sans-serif" font-size="14" font-weight="800" fill="#334155">我的装备</text>
  <text x="276" y="547" font-family="Arial,'Microsoft YaHei',sans-serif" font-size="18" fill="#94a3b8">›</text>

  <rect x="62" y="582" width="236" height="52" rx="14" fill="#ffffff" stroke="#d8e0dc"/>
  <circle cx="88" cy="608" r="12" fill="#dbeafe"/>
  <path d="M82 604h12M82 612h12" stroke="#2563eb" stroke-width="2.2" stroke-linecap="round"/>
  <text x="112" y="613" font-family="Arial,'Microsoft YaHei',sans-serif" font-size="14" font-weight="800" fill="#334155">帮助与反馈</text>
  <text x="276" y="613" font-family="Arial,'Microsoft YaHei',sans-serif" font-size="18" fill="#94a3b8">›</text>

  <rect x="62" y="648" width="236" height="42" rx="14" fill="#f8fafc" stroke="#e2e8f0"/>
  <text x="82" y="675" font-family="Arial,'Microsoft YaHei',sans-serif" font-size="13" font-weight="800" fill="#334155">关于摩旅工具</text>
  <rect x="138" y="715" width="84" height="5" rx="3" fill="#cbd5e1"/>
</svg>
